<svg width="358" height="119" viewBox="0 0 358 119" fill="none" xmlns="http://www.w3.org/2000/svg">
<path d="M205.046 0.0544431C202.277 0.270896 199.959 0.94731 197.335 2.30014C195.134 3.4275 193.294 4.75327 191.644 6.3947C189.579 8.451 188.677 9.93911 187.748 12.8432C187.126 14.7822 186.819 16.577 186.602 19.6073C186.377 22.8541 186.314 23.5486 186.188 24.6128C185.746 28.2474 184.411 32.4051 182.373 36.5177C181.227 38.8265 180.406 40.1703 178.504 42.9301C177.638 44.1927 175.798 46.3392 174.427 47.7011C172.686 49.4417 171.541 50.3887 167.979 53.0673C163.613 56.3592 162.549 57.243 160.754 59.0738C158.031 61.8697 156.606 64.2867 155.749 67.5786C154.54 72.2684 154.802 76.9131 156.479 80.2591C157.526 82.3425 159.158 83.7404 161.746 84.7686C166.779 86.7617 172.777 85.3007 177.07 81.0438C180.325 77.797 182.21 73.5401 182.562 68.5978C182.652 67.29 182.652 66.785 182.517 64.9902C182.219 61.0039 182.355 57.7391 183.004 53.7527C183.752 49.1802 184.916 45.4644 186.774 41.7576C188.235 38.8355 189.741 36.68 192.239 33.8932C193.421 32.5764 196.045 30.0241 196.208 30.0241C196.352 30.0241 198.156 32.7117 198.913 34.0285C199.644 35.3092 200.672 37.3925 201.312 38.8806C202.367 41.3338 202.918 43.2097 203.955 47.8814C204.478 50.2354 205.01 52.7156 205.127 53.392C206.065 58.4966 206.146 65.7749 205.353 73.5852C204.802 79.0416 203.657 85.8959 202.656 89.774C202.449 90.5677 202.142 91.7401 201.971 92.3895C201.312 94.8967 201.258 95.3297 201.258 97.7106C201.267 99.8932 201.357 100.84 201.718 102.491C202.656 106.702 204.559 110.166 207.517 113.025C210.638 116.037 214.408 117.967 218.493 118.643C219.846 118.869 223.039 118.878 224.409 118.652C229.514 117.832 234.006 115.469 237.658 111.672C240.436 108.777 242.267 105.476 243.106 101.814C243.566 99.785 243.638 99.1176 243.638 96.8989C243.629 94.6893 243.629 94.7254 242.97 91.3072C242.429 88.5024 241.951 85.0572 241.654 81.9276C241.464 79.8353 241.383 74.3428 241.518 72.3316C242.231 61.9058 245.667 54.8801 253.703 47.4485C257.473 43.9582 261.775 40.8467 267.953 37.1219C271.885 34.75 273.625 33.4603 275.664 31.422C277.982 29.1042 279.145 27.1832 279.785 24.6398C280.056 23.5666 280.074 21.0954 279.821 19.923C279.199 17.037 277.711 14.3042 275.528 12.0405C272.273 8.66745 268.115 6.78251 262.857 6.29549C256.634 5.7273 249.68 8.14436 244.368 12.7169C239.363 17.0189 237.252 21.5734 237.649 27.1922C237.703 27.9317 237.902 29.8167 238.1 31.3769C238.569 35.0476 238.641 35.9495 238.641 37.9156C238.641 43.354 237.64 49.9648 236.242 53.7076C235.106 56.765 232.517 60.6071 228.892 64.6204C227.079 66.6317 222.669 70.8254 222.452 70.7533C222.308 70.7172 220.703 68.5346 219.666 67.0014C216.139 61.7344 213.821 56.7199 212.532 51.5792C211.44 47.2141 210.773 41.4149 210.773 36.3373C210.782 30.8899 211.404 24.712 212.496 19.3368C212.874 17.4969 213.208 16.2523 213.758 14.647C214.868 11.4092 215.102 10.3269 215.102 8.42394C215.102 7.017 214.931 6.17825 214.399 5.01481C213.388 2.80519 211.17 1.08259 208.428 0.39716C207.743 0.216782 205.641 -0.0537832 205.452 0.00934878C205.425 0.0183676 205.244 0.0364054 205.046 0.0544431Z" fill="url(#paint0_linear_3_35)"/>
<path d="M13.504 61.4645C13.504 63.6405 13.76 65.6032 14.272 67.3525C14.8267 69.1018 15.5947 70.6165 16.576 71.8965C17.6 73.1338 18.8373 74.0938 20.288 74.7765C21.7387 75.4592 23.4027 75.8005 25.28 75.8005C27.1147 75.8005 28.7573 75.4592 30.208 74.7765C31.7013 74.0938 32.9387 73.1338 33.92 71.8965C34.944 70.6165 35.712 69.1018 36.224 67.3525C36.7787 65.6032 37.056 63.6405 37.056 61.4645C37.056 59.2885 36.7787 57.3258 36.224 55.5765C35.712 53.7845 34.944 52.2698 33.92 51.0325C32.9387 49.7525 31.7013 48.7711 30.208 48.0885C28.7573 47.4058 27.1147 47.0645 25.28 47.0645C23.4027 47.0645 21.7387 47.4272 20.288 48.1525C18.8373 48.8352 17.6 49.8165 16.576 51.0965C15.5947 52.3338 14.8267 53.8485 14.272 55.6405C13.76 57.3898 13.504 59.3312 13.504 61.4645ZM47.36 61.4645C47.36 65.2618 46.784 68.6112 45.632 71.5125C44.5227 74.3712 42.9867 76.7818 41.024 78.7445C39.0613 80.6645 36.7147 82.1152 33.984 83.0965C31.296 84.0778 28.3947 84.5685 25.28 84.5685C22.2507 84.5685 19.392 84.0778 16.704 83.0965C14.016 82.1152 11.6693 80.6645 9.664 78.7445C7.65867 76.7818 6.08 74.3712 4.928 71.5125C3.776 68.6112 3.2 65.2618 3.2 61.4645C3.2 57.6672 3.79733 54.3392 4.992 51.4805C6.18667 48.5791 7.78667 46.1471 9.792 44.1845C11.84 42.2218 14.1867 40.7498 16.832 39.7685C19.52 38.7871 22.336 38.2965 25.28 38.2965C28.3093 38.2965 31.168 38.7871 33.856 39.7685C36.544 40.7498 38.8907 42.2218 40.896 44.1845C42.9013 46.1471 44.48 48.5791 45.632 51.4805C46.784 54.3392 47.36 57.6672 47.36 61.4645ZM55.0425 51.1605C56.6638 50.6911 58.7545 50.2645 61.3145 49.8805C63.8745 49.4538 66.5625 49.2405 69.3785 49.2405C72.2372 49.2405 74.6052 49.6245 76.4825 50.3925C78.4025 51.1178 79.9172 52.1632 81.0265 53.5285C82.1358 54.8938 82.9252 56.5152 83.3945 58.3925C83.8638 60.2698 84.0985 62.3605 84.0985 64.6645V83.6725H74.5625V65.8165C74.5625 62.7445 74.1572 60.5685 73.3465 59.2885C72.5358 58.0085 71.0212 57.3685 68.8025 57.3685C68.1198 57.3685 67.3945 57.4112 66.6265 57.4965C65.8585 57.5392 65.1758 57.6032 64.5785 57.6885V83.6725H55.0425V51.1605ZM92.41 41.6245L101.946 40.0885V50.0085H113.402V57.9445H101.946V69.7845C101.946 71.7898 102.287 73.3898 102.97 74.5845C103.695 75.7792 105.125 76.3765 107.258 76.3765C108.282 76.3765 109.327 76.2912 110.394 76.1205C111.503 75.9072 112.506 75.6298 113.402 75.2885L114.746 82.7125C113.594 83.1818 112.314 83.5872 110.906 83.9285C109.498 84.2698 107.77 84.4405 105.722 84.4405C103.119 84.4405 100.965 84.0992 99.258 83.4165C97.5513 82.6912 96.186 81.7098 95.162 80.4725C94.138 79.1925 93.4127 77.6565 92.986 75.8645C92.602 74.0725 92.41 72.0885 92.41 69.9125V41.6245ZM151.406 66.7765C151.406 69.4218 151.022 71.8538 150.254 74.0725C149.486 76.2485 148.376 78.1258 146.926 79.7045C145.475 81.2405 143.726 82.4352 141.678 83.2885C139.672 84.1418 137.411 84.5685 134.894 84.5685C132.419 84.5685 130.158 84.1418 128.11 83.2885C126.104 82.4352 124.376 81.2405 122.926 79.7045C121.475 78.1258 120.344 76.2485 119.534 74.0725C118.723 71.8538 118.318 69.4218 118.318 66.7765C118.318 64.1312 118.723 61.7205 119.534 59.5445C120.387 57.3685 121.539 55.5125 122.99 53.9765C124.483 52.4405 126.232 51.2458 128.238 50.3925C130.286 49.5392 132.504 49.1125 134.894 49.1125C137.326 49.1125 139.544 49.5392 141.55 50.3925C143.598 51.2458 145.347 52.4405 146.798 53.9765C148.248 55.5125 149.379 57.3685 150.19 59.5445C151 61.7205 151.406 64.1312 151.406 66.7765ZM141.678 66.7765C141.678 63.8325 141.08 61.5285 139.886 59.8645C138.734 58.1578 137.07 57.3045 134.894 57.3045C132.718 57.3045 131.032 58.1578 129.838 59.8645C128.643 61.5285 128.046 63.8325 128.046 66.7765C128.046 69.7205 128.643 72.0672 129.838 73.8165C131.032 75.5232 132.718 76.3765 134.894 76.3765C137.07 76.3765 138.734 75.5232 139.886 73.8165C141.08 72.0672 141.678 69.7205 141.678 66.7765Z" fill="url(#paint1_linear_3_35)"/>
<path d="M285.968 67.104C285.968 69.7493 285.584 72.1813 284.816 74.4C284.048 76.576 282.939 78.4533 281.488 80.032C280.037 81.568 278.288 82.7627 276.24 83.616C274.235 84.4693 271.973 84.896 269.456 84.896C266.981 84.896 264.72 84.4693 262.672 83.616C260.667 82.7627 258.939 81.568 257.488 80.032C256.037 78.4533 254.907 76.576 254.096 74.4C253.285 72.1813 252.88 69.7493 252.88 67.104C252.88 64.4587 253.285 62.048 254.096 59.872C254.949 57.696 256.101 55.84 257.552 54.304C259.045 52.768 260.795 51.5733 262.8 50.72C264.848 49.8667 267.067 49.44 269.456 49.44C271.888 49.44 274.107 49.8667 276.112 50.72C278.16 51.5733 279.909 52.768 281.36 54.304C282.811 55.84 283.941 57.696 284.752 59.872C285.563 62.048 285.968 64.4587 285.968 67.104ZM276.24 67.104C276.24 64.16 275.643 61.856 274.448 60.192C273.296 58.4853 271.632 57.632 269.456 57.632C267.28 57.632 265.595 58.4853 264.4 60.192C263.205 61.856 262.608 64.16 262.608 67.104C262.608 70.048 263.205 72.3947 264.4 74.144C265.595 75.8507 267.28 76.704 269.456 76.704C271.632 76.704 273.296 75.8507 274.448 74.144C275.643 72.3947 276.24 70.048 276.24 67.104ZM301.632 84C299.456 79.7333 297.237 74.7413 294.976 69.024C292.757 63.3067 290.645 57.0773 288.64 50.336H298.752C299.179 52 299.669 53.8133 300.224 55.776C300.821 57.696 301.419 59.6587 302.016 61.664C302.656 63.6267 303.275 65.5467 303.872 67.424C304.512 69.3013 305.131 71.008 305.728 72.544C306.283 71.008 306.88 69.3013 307.52 67.424C308.16 65.5467 308.779 63.6267 309.376 61.664C310.016 59.6587 310.613 57.696 311.168 55.776C311.765 53.8133 312.277 52 312.704 50.336H322.56C320.555 57.0773 318.421 63.3067 316.16 69.024C313.941 74.7413 311.744 79.7333 309.568 84H301.632ZM339.907 77.344C340.845 77.344 341.741 77.3227 342.595 77.28C343.448 77.2373 344.131 77.1733 344.643 77.088V69.856C344.259 69.7707 343.683 69.6853 342.915 69.6C342.147 69.5147 341.443 69.472 340.803 69.472C339.907 69.472 339.053 69.536 338.243 69.664C337.475 69.7493 336.792 69.9413 336.195 70.24C335.597 70.5387 335.128 70.944 334.787 71.456C334.445 71.968 334.275 72.608 334.275 73.376C334.275 74.8693 334.765 75.9147 335.747 76.512C336.771 77.0667 338.157 77.344 339.907 77.344ZM339.139 49.44C341.955 49.44 344.301 49.76 346.179 50.4C348.056 51.04 349.549 51.9573 350.659 53.152C351.811 54.3467 352.621 55.7973 353.091 57.504C353.56 59.2107 353.795 61.1093 353.795 63.2V83.04C352.429 83.3387 350.531 83.68 348.099 84.064C345.667 84.4907 342.723 84.704 339.267 84.704C337.091 84.704 335.107 84.512 333.315 84.128C331.565 83.744 330.051 83.1253 328.771 82.272C327.491 81.376 326.509 80.224 325.827 78.816C325.144 77.408 324.803 75.68 324.803 73.632C324.803 71.6693 325.187 70.0053 325.955 68.64C326.765 67.2747 327.832 66.1867 329.155 65.376C330.477 64.5653 331.992 63.9893 333.699 63.648C335.405 63.264 337.176 63.072 339.01 63.072C340.248 63.072 341.336 63.136 342.275 63.264C343.256 63.3493 344.045 63.4773 344.643 63.648V62.752C344.643 61.1307 344.152 59.8293 343.171 58.848C342.189 57.8667 340.483 57.376 338.051 57.376C336.429 57.376 334.829 57.504 333.251 57.76C331.672 57.9733 330.307 58.2933 329.155 58.72L327.939 51.04C328.493 50.8693 329.176 50.6987 329.987 50.528C330.84 50.3147 331.757 50.144 332.739 50.016C333.72 49.8453 334.744 49.7173 335.811 49.632C336.92 49.504 338.029 49.44 339.139 49.44Z" fill="url(#paint2_linear_3_35)"/>
<defs>
<linearGradient id="paint0_linear_3_35" x1="157.899" y1="82.1446" x2="289.094" y2="74.7893" gradientUnits="userSpaceOnUse">
<stop stop-color="#F0533B"/>
<stop offset="1" stop-color="#FCB944"/>
</linearGradient>
<linearGradient id="paint1_linear_3_35" x1="3.59536" y1="45.5123" x2="164.78" y2="63.5042" gradientUnits="userSpaceOnUse">
<stop stop-color="#F0533B"/>
<stop offset="1" stop-color="#FCB944"/>
</linearGradient>
<linearGradient id="paint2_linear_3_35" x1="252.505" y1="45.8399" x2="365.53" y2="54.6304" gradientUnits="userSpaceOnUse">
<stop stop-color="#F0533B"/>
<stop offset="1" stop-color="#FCB944"/>
</linearGradient>
</defs>
</svg>
